<?xml version="1.0" encoding="utf-8"?>
<!-- Generator: Adobe Illustrator 24.2.0, SVG Export Plug-In . SVG Version: 6.00 Build 0)  -->
<svg version="1.1" id="Layer_1" xmlns="http://www.w3.org/2000/svg" xmlns:xlink="http://www.w3.org/1999/xlink" x="0px" y="0px"
	 viewBox="0 0 988 346" style="enable-background:new 0 0 988 346;" xml:space="preserve">
<style type="text/css">
	.st0{fill:#2B2A29;}
	.st1{fill:#898989;}
</style>
<g>
	<path class="st0" d="M138.8,246.2c-14.8,17.2-32.1,24.1-54.1,24.1c-37.2,0-64.8-24.1-64.8-62.4V92.2h65.5v101.7
		c0.7,16.9,4.8,35.2,25.2,35.2c32.4,0,28.3-35.5,28.3-37.6V92.2h65.5v128.6c0,15.5,0.3,25.8,2.1,44.4h-66.5L138.8,246.2z"/>
	<path class="st1" d="M321.2,16.3c-13.8,45.9-29,93.1-28.6,141c0,47.9,15.2,95.1,28.9,141h-42.7c-17.9-45.8-37.9-91-37.9-141
		s20-95.1,37.9-141L321.2,16.3L321.2,16.3z"/>
	<path class="st1" d="M404.1,116.7h0.7C417.9,96.3,435.5,87,461,87c51.4,0,73.8,43.8,73.8,89.3c0,50.7-25.5,94.1-81,94.1
		c-19.3,0-36.9-10.7-48.9-25.9h-0.7v86.9h-65.5V92.2h65.5L404.1,116.7L404.1,116.7z M404.1,178.7c0,22.1,4.1,53.8,31.7,53.8
		c27.6,0,31.7-31.7,31.7-53.8c0-22-4.1-53.8-31.7-53.8C408.3,124.9,404.1,156.6,404.1,178.7z"/>
	<path class="st1" d="M544.1,298.3c13.8-45.8,29-93,28.6-141c0-47.9-15.2-95.1-28.9-141h42.7c17.9,45.9,37.9,91,37.9,141
		c0,50-20,95.1-37.9,141L544.1,298.3L544.1,298.3z"/>
	<path class="st0" d="M724.7,120.8h0.7C737.5,97,760.2,88,786.1,88c21,0,44.8,11,52.1,32.1c11.7-20.7,35.5-32.4,61.4-33.1
		c37.2,0,64.8,24.1,64.8,62.4v115.8h-65.5V163.5c-0.7-16.9-4.8-35.1-25.2-35.1c-32.4,0-28.3,35.5-28.3,37.6v99.3h-65.5V163.5
		c-0.7-16.9-4.8-35.1-25.2-35.1c-32.4,0-28.3,35.5-28.3,37.6v99.3h-65.5V136.7c0-15.5-0.3-25.9-2.1-44.5h64.8L724.7,120.8z"/>
</g>
</svg>
