<?xml version="1.0" encoding="UTF-8"?><svg id="Vrstva_1" xmlns="http://www.w3.org/2000/svg" viewBox="0 0 119.76 26.18"><path d="M66.77,26.18H0V0H66.77c7.22,0,13.09,5.87,13.09,13.09s-5.87,13.09-13.09,13.09M1.31,24.87H66.77c6.5,0,11.78-5.28,11.78-11.78s-5.29-11.78-11.78-11.78H1.31V24.87Z"/><path d="M11.62,7.77c1.73,0,3.06,.44,3.99,1.32,.93,.88,1.4,2.22,1.4,4.02,0,.94-.11,1.78-.32,2.51-.21,.73-.53,1.34-.97,1.84-.44,.5-1,.88-1.68,1.14-.68,.26-1.49,.39-2.42,.39h-3.85V7.77h3.85Zm.13,9.96c.17,0,.38-.01,.63-.04,.25-.03,.52-.09,.8-.19,.28-.1,.56-.24,.84-.43,.28-.19,.53-.44,.75-.77,.22-.32,.4-.73,.54-1.22s.21-1.08,.21-1.77-.07-1.27-.2-1.8c-.13-.53-.34-.98-.64-1.35-.3-.37-.68-.65-1.15-.85-.47-.19-1.05-.29-1.74-.29h-2.51v8.7h2.48Z"/><rect x="21.97" y="13.99" width="7.85" height="1.26"/><path d="M35.06,10.22c.15-.48,.37-.9,.68-1.25,.31-.35,.69-.63,1.15-.83,.46-.2,.98-.3,1.57-.3,.48,0,.94,.07,1.36,.21,.42,.14,.79,.35,1.11,.61,.31,.27,.56,.6,.75,1,.18,.4,.28,.86,.28,1.38,0,.49-.08,.93-.23,1.3-.15,.38-.35,.72-.61,1.01-.25,.3-.54,.57-.86,.81-.32,.24-.66,.47-1.01,.69-.34,.21-.69,.42-1.04,.62-.35,.2-.66,.42-.95,.65-.29,.23-.53,.48-.74,.75s-.34,.57-.4,.92h5.72v1.18h-7.27c.05-.66,.17-1.22,.35-1.69,.18-.47,.42-.87,.7-1.22s.6-.65,.96-.91c.36-.26,.73-.51,1.12-.74,.47-.29,.88-.56,1.24-.81,.36-.25,.65-.5,.89-.75,.24-.25,.41-.52,.53-.82,.12-.29,.18-.63,.18-1.02,0-.3-.06-.58-.17-.83-.12-.25-.27-.46-.46-.64-.2-.18-.42-.31-.68-.41-.26-.09-.54-.14-.83-.14-.39,0-.72,.08-1,.24-.28,.16-.51,.37-.68,.64-.18,.26-.31,.56-.38,.89-.08,.33-.11,.66-.1,1h-1.33c-.03-.57,.03-1.09,.17-1.57"/><path d="M47.19,18.98v-7.98h-2.89v-1.07c.38,0,.74-.03,1.1-.09,.35-.06,.68-.16,.97-.32,.29-.16,.53-.37,.73-.64,.2-.27,.33-.62,.41-1.04h1.02v11.14h-1.33Z"/><path d="M83.36,14.07h2.05c.38,0,.71,.06,.98,.19,.28,.13,.5,.31,.68,.53,.17,.23,.3,.49,.39,.79,.09,.3,.13,.62,.13,.96s-.04,.66-.13,.96c-.09,.3-.22,.56-.39,.79-.18,.22-.4,.4-.68,.53-.28,.13-.61,.19-.98,.19h-2.05v-4.95Zm.87,4.24h.85c.34,0,.61-.04,.83-.13,.22-.09,.38-.21,.51-.37,.12-.16,.21-.35,.25-.56,.04-.22,.07-.45,.07-.7s-.02-.48-.07-.7c-.04-.22-.13-.4-.25-.56-.12-.16-.29-.28-.51-.38s-.49-.14-.83-.14h-.85v3.53Z"/><path d="M88.87,17.43c0,.14,.02,.27,.06,.4,.04,.13,.1,.24,.18,.34,.08,.1,.18,.17,.3,.23,.12,.06,.26,.09,.43,.09,.23,0,.42-.05,.56-.15,.14-.1,.25-.25,.31-.45h.75c-.04,.2-.11,.37-.22,.52-.1,.15-.22,.28-.37,.39-.14,.1-.3,.18-.48,.24-.18,.05-.36,.08-.56,.08-.28,0-.53-.05-.75-.14-.22-.09-.4-.22-.55-.39-.15-.17-.26-.37-.34-.6-.08-.23-.11-.49-.11-.76,0-.25,.04-.5,.12-.72,.08-.23,.2-.43,.35-.6,.15-.17,.33-.31,.54-.41,.21-.1,.45-.15,.72-.15s.53,.06,.76,.18c.22,.12,.41,.27,.56,.47,.15,.2,.26,.42,.32,.67s.08,.51,.05,.78h-2.63Zm1.31-2.49h-.77l-.74-.99h.64l.48,.62,.49-.62h.64l-.75,.99Zm.53,1.97c-.01-.12-.04-.24-.08-.36-.04-.12-.1-.22-.18-.3-.08-.09-.17-.15-.28-.21-.11-.05-.23-.08-.36-.08s-.27,.02-.38,.07c-.11,.05-.21,.11-.29,.2-.08,.09-.15,.19-.19,.3-.05,.12-.07,.24-.08,.37h1.84Z"/><path d="M92.13,15.44h.79v3.89c0,.36-.08,.63-.24,.82-.16,.19-.42,.29-.79,.29-.08,0-.14,0-.2,0-.05,0-.11-.01-.16-.02v-.62c.05,.01,.1,.02,.15,.02,.05,0,.09,0,.12,0,.14,0,.23-.04,.27-.13,.03-.09,.05-.22,.05-.39v-3.85Zm0-1.36h.79v.75h-.79v-.75Z"/><path d="M94.4,17.43c0,.14,.02,.27,.06,.4,.04,.13,.1,.24,.18,.34,.08,.1,.18,.17,.3,.23,.12,.06,.26,.09,.43,.09,.23,0,.42-.05,.56-.15,.14-.1,.25-.25,.31-.45h.75c-.04,.2-.11,.37-.22,.52-.1,.15-.22,.28-.37,.39-.14,.1-.3,.18-.48,.24-.18,.05-.36,.08-.56,.08-.28,0-.53-.05-.75-.14-.22-.09-.4-.22-.55-.39-.15-.17-.26-.37-.34-.6-.08-.23-.11-.49-.11-.76,0-.25,.04-.5,.12-.72,.08-.23,.2-.43,.35-.6,.15-.17,.33-.31,.54-.41,.21-.1,.45-.15,.72-.15s.53,.06,.76,.18c.23,.12,.41,.27,.56,.47,.15,.2,.26,.42,.32,.67s.08,.51,.05,.78h-2.63Zm1.84-.52c-.01-.12-.04-.24-.08-.36-.04-.12-.1-.22-.18-.3-.08-.09-.17-.15-.28-.21-.11-.05-.23-.08-.36-.08s-.26,.02-.38,.07c-.11,.05-.21,.11-.29,.2-.08,.09-.15,.19-.19,.3-.05,.12-.07,.24-.08,.37h1.84Z"/><path d="M97.65,15.44h.75v.48h.01c.11-.21,.27-.36,.47-.45,.2-.09,.41-.13,.64-.13,.28,0,.53,.05,.74,.15,.21,.1,.38,.24,.52,.41s.24,.38,.31,.61c.07,.23,.1,.48,.1,.74,0,.24-.03,.47-.09,.7-.06,.23-.16,.43-.28,.6-.13,.17-.29,.31-.48,.41-.2,.1-.42,.16-.69,.16-.11,0-.23-.01-.35-.03-.12-.02-.23-.05-.33-.1-.11-.05-.2-.11-.29-.18-.09-.07-.17-.16-.23-.25h-.02v1.79h-.79v-4.91Zm2.76,1.79c0-.16-.02-.32-.06-.47-.04-.15-.1-.29-.19-.4-.08-.12-.19-.21-.31-.28-.12-.07-.27-.11-.43-.11-.33,0-.58,.11-.75,.35-.17,.23-.25,.54-.25,.92,0,.18,.02,.35,.06,.5,.04,.15,.11,.29,.2,.4,.09,.11,.19,.2,.31,.26,.12,.06,.26,.1,.43,.1,.18,0,.33-.04,.46-.11,.12-.07,.23-.17,.31-.29,.08-.12,.14-.25,.17-.4,.03-.15,.05-.3,.05-.46"/><path d="M101.89,14.07h.79v.75h-.79v-.75Zm0,1.36h.79v3.58h-.79v-3.58Z"/><path d="M104.13,17.87c.02,.23,.11,.39,.26,.49,.15,.09,.33,.14,.55,.14,.07,0,.16,0,.25-.02,.09-.01,.18-.03,.27-.07s.15-.08,.2-.14c.05-.06,.08-.14,.07-.25,0-.1-.04-.19-.11-.25-.07-.07-.16-.12-.27-.16-.11-.04-.23-.07-.37-.1-.14-.03-.28-.06-.42-.09-.15-.03-.29-.07-.43-.12-.14-.05-.26-.11-.37-.19-.11-.08-.2-.18-.26-.3-.07-.12-.1-.27-.1-.45,0-.19,.05-.36,.14-.49,.09-.13,.22-.24,.36-.32,.15-.08,.31-.14,.48-.17,.18-.03,.35-.05,.51-.05,.19,0,.36,.02,.53,.06,.17,.04,.32,.1,.46,.19,.14,.09,.25,.2,.34,.34,.09,.14,.15,.31,.17,.51h-.82c-.04-.19-.12-.32-.26-.38-.14-.06-.29-.1-.47-.1-.06,0-.12,0-.2,.01-.08,0-.15,.03-.22,.05-.07,.03-.12,.06-.17,.11-.05,.05-.07,.11-.07,.19,0,.1,.03,.18,.1,.24,.07,.06,.16,.11,.26,.15,.11,.04,.23,.07,.37,.1,.14,.03,.28,.06,.43,.09,.14,.03,.28,.07,.42,.12,.14,.05,.26,.11,.37,.19,.11,.08,.2,.18,.26,.3,.07,.12,.1,.27,.1,.44,0,.21-.05,.39-.15,.54-.1,.15-.22,.27-.38,.36-.15,.09-.33,.16-.52,.2-.19,.04-.38,.06-.56,.06-.23,0-.44-.03-.63-.08-.19-.05-.36-.13-.5-.23-.14-.1-.25-.23-.33-.39-.08-.15-.12-.34-.13-.55h.79Z"/><polygon points="82.9 22.44 83.75 22.44 84.66 25.19 84.68 25.19 85.55 22.44 86.37 22.44 85.09 26.02 84.2 26.02 82.9 22.44"/><path d="M91.94,26.02h-3.31c0-.4,.1-.75,.29-1.05,.19-.3,.45-.56,.78-.78,.16-.11,.32-.23,.49-.34,.17-.11,.33-.22,.47-.35,.14-.12,.26-.26,.35-.41,.09-.14,.14-.31,.15-.5,0-.09-.01-.18-.03-.28-.02-.1-.06-.19-.12-.28-.06-.09-.14-.16-.25-.22-.11-.06-.24-.09-.42-.09-.16,0-.29,.03-.39,.09-.1,.06-.19,.15-.25,.26-.06,.11-.11,.24-.14,.38-.03,.15-.05,.31-.05,.48h-.79c0-.27,.04-.52,.11-.74,.07-.23,.18-.43,.32-.59,.14-.17,.32-.3,.52-.39,.21-.09,.44-.14,.72-.14,.29,0,.54,.05,.74,.14,.2,.1,.36,.22,.48,.37,.12,.15,.21,.31,.26,.48,.05,.17,.08,.34,.08,.5,0,.19-.03,.37-.09,.53-.06,.16-.14,.3-.24,.43-.1,.13-.22,.25-.35,.36-.13,.11-.26,.22-.4,.31-.14,.1-.28,.19-.41,.28-.14,.09-.27,.18-.38,.26-.12,.09-.22,.18-.31,.27-.09,.09-.15,.19-.18,.3h2.36v.71Z"/><path d="M92.58,21.97c.17,0,.33-.01,.48-.04,.16-.03,.3-.07,.43-.14,.13-.07,.24-.15,.33-.25,.09-.1,.15-.23,.18-.37h.65v4.85h-.87v-3.42h-1.19v-.62Z"/><rect x="96.54" y="25.09" width=".96" height=".94"/><path d="M100.93,24.87c.02,.23,.11,.39,.26,.49,.15,.09,.33,.14,.55,.14,.07,0,.16,0,.25-.02,.09-.01,.18-.03,.27-.07s.15-.08,.2-.14c.05-.06,.08-.14,.07-.25,0-.1-.04-.18-.11-.25-.07-.06-.16-.12-.27-.16-.11-.04-.23-.07-.37-.1-.14-.03-.28-.06-.42-.09-.15-.03-.29-.07-.43-.12-.14-.05-.26-.11-.37-.19-.11-.08-.2-.18-.26-.3-.07-.12-.1-.27-.1-.45,0-.19,.05-.36,.14-.49,.09-.13,.22-.24,.36-.32,.15-.08,.31-.14,.48-.17,.18-.03,.35-.05,.51-.05,.19,0,.36,.02,.53,.06,.17,.04,.32,.1,.46,.19,.14,.09,.25,.2,.34,.34,.09,.14,.15,.31,.17,.51h-.82c-.04-.19-.12-.32-.26-.38s-.29-.1-.47-.1c-.06,0-.12,0-.2,.01-.08,0-.15,.03-.22,.05-.07,.03-.12,.06-.17,.11-.05,.05-.07,.11-.07,.19,0,.1,.03,.18,.1,.24,.07,.06,.16,.11,.26,.15,.11,.04,.23,.07,.37,.1,.14,.03,.28,.06,.43,.09,.14,.03,.28,.07,.42,.12,.14,.05,.26,.11,.37,.19,.11,.08,.2,.18,.26,.3,.07,.12,.1,.27,.1,.44,0,.21-.05,.39-.15,.54s-.22,.27-.38,.36c-.15,.09-.33,.16-.52,.2-.19,.04-.38,.06-.56,.06-.23,0-.44-.02-.63-.08s-.36-.13-.5-.23c-.14-.1-.25-.23-.33-.39-.08-.15-.12-.34-.13-.55h.79Z"/><path d="M103.57,22.44h.6v-1.08h.79v1.08h.71v.59h-.71v1.91c0,.08,0,.15,.01,.21,0,.06,.02,.11,.05,.15,.03,.04,.06,.07,.11,.09,.05,.02,.12,.03,.21,.03,.06,0,.11,0,.17,0,.05,0,.11-.01,.17-.02v.61c-.09,0-.17,.02-.26,.03-.08,0-.17,.01-.26,.01-.21,0-.38-.02-.5-.06-.13-.04-.23-.1-.3-.17-.07-.08-.12-.17-.15-.29-.03-.12-.04-.25-.05-.39v-2.11h-.6v-.59Z"/><path d="M107.88,26.12c-.29,0-.54-.05-.77-.14-.22-.09-.41-.23-.57-.39-.15-.17-.27-.37-.35-.6-.08-.23-.12-.49-.12-.76s.04-.52,.12-.75c.08-.23,.2-.43,.35-.6,.15-.17,.34-.3,.57-.39,.22-.09,.48-.14,.77-.14s.54,.05,.77,.14c.22,.1,.41,.23,.57,.39,.15,.17,.27,.36,.35,.6,.08,.23,.12,.48,.12,.75s-.04,.53-.12,.76c-.08,.23-.2,.43-.35,.6-.15,.17-.34,.3-.57,.39-.22,.1-.48,.14-.77,.14m0-.62c.18,0,.33-.04,.46-.11,.13-.07,.24-.17,.32-.29s.15-.25,.18-.41c.04-.15,.06-.3,.06-.46s-.02-.3-.06-.46c-.04-.15-.1-.29-.18-.4-.08-.12-.19-.21-.32-.29-.13-.07-.28-.11-.46-.11s-.33,.04-.46,.11c-.13,.07-.24,.17-.32,.29-.08,.12-.15,.25-.18,.4-.04,.15-.06,.31-.06,.46s.02,.31,.06,.46c.04,.15,.1,.29,.18,.41s.19,.22,.32,.29c.13,.07,.28,.11,.46,.11"/><rect x="110.37" y="21.07" width=".79" height="4.95"/><path d="M112.64,24.43c0,.14,.02,.27,.06,.4,.04,.13,.1,.24,.18,.34,.08,.1,.18,.17,.3,.23,.12,.06,.26,.09,.43,.09,.23,0,.42-.05,.56-.15,.14-.1,.25-.25,.31-.45h.75c-.04,.19-.11,.37-.22,.52-.1,.15-.22,.28-.37,.39-.14,.1-.3,.18-.48,.24-.18,.05-.36,.08-.56,.08-.28,0-.53-.05-.75-.14-.22-.09-.4-.22-.55-.39-.15-.17-.26-.37-.34-.6-.08-.23-.12-.49-.12-.76,0-.25,.04-.5,.12-.72,.08-.23,.2-.43,.35-.6,.15-.17,.33-.31,.54-.41,.21-.1,.45-.15,.72-.15s.53,.06,.76,.18c.22,.12,.41,.27,.56,.47,.15,.19,.26,.42,.32,.67,.07,.25,.08,.51,.05,.78h-2.63Zm1.84-.52c-.01-.12-.04-.24-.08-.36-.04-.12-.1-.22-.18-.3-.08-.09-.17-.15-.28-.21-.11-.05-.23-.08-.36-.08s-.26,.02-.38,.07c-.11,.05-.21,.12-.29,.2-.08,.09-.15,.19-.19,.3-.05,.12-.07,.24-.08,.37h1.84Z"/><path d="M115.52,22.44h.6v-1.08h.79v1.08h.71v.59h-.71v1.91c0,.08,0,.15,.01,.21,0,.06,.02,.11,.05,.15,.03,.04,.06,.07,.11,.09,.05,.02,.12,.03,.21,.03,.06,0,.11,0,.17,0,.06,0,.11-.01,.17-.02v.61c-.09,0-.17,.02-.26,.03-.08,0-.17,.01-.26,.01-.21,0-.38-.02-.5-.06-.13-.04-.23-.1-.3-.17-.07-.08-.12-.17-.15-.29-.03-.12-.04-.25-.05-.39v-2.11h-.6v-.59Z"/><path d="M118.83,20.95h.94l-.98,.99h-.58l.62-.99Zm-.62,1.49h.79v3.58h-.79v-3.58Z"/></svg>